<?xml version="1.0" encoding="utf-8"?>
<!-- Generator: Adobe Illustrator 26.3.1, SVG Export Plug-In . SVG Version: 6.00 Build 0)  -->
<svg version="1.1" id="Capa_2" xmlns="http://www.w3.org/2000/svg" xmlns:xlink="http://www.w3.org/1999/xlink" x="0px" y="0px"
	 viewBox="0 0 66 82.5" style="enable-background:new 0 0 66 82.5;" xml:space="preserve">
<path d="M51.7,8.7H16c-2.6,0-4.8,2.1-4.8,4.8v54.4c0,2.6,2.1,4.8,4.8,4.8h35.6c2.6,0,4.8-2.1,4.8-4.8V13.5
	C56.4,10.8,54.3,8.7,51.7,8.7z M30.1,12.6h7.6c0.5,0,1,0.4,1,1s-0.5,1-1,1h-7.6c-0.5,0-1-0.4-1-1S29.5,12.6,30.1,12.6z M37.6,68.7
	h-7.6c-0.5,0-1-0.5-1-1c0-0.6,0.5-1,1-1h7.6c0.5,0,1,0.4,1,1C38.6,68.3,38.2,68.7,37.6,68.7z M51.4,62.8H16.3V18.6h35.2L51.4,62.8
	L51.4,62.8z"/>
<path d="M45.3,44.9c0,3.1-0.4,6-1,8.7c-0.1,0.5,0.2,1.1,0.8,1.2c0.1,0,0.1,0,0.2,0c0.5,0,0.9-0.3,1-0.8c0.6-2.8,1-5.9,1-9.1v-0.1
	L45.3,44.9C45.3,44.9,45.3,44.9,45.3,44.9z"/>
<path d="M34.8,27.3c4.9,0.4,8.9,4.1,9.9,8.9h2c-1-5.9-5.8-10.4-11.8-10.9c-0.5-0.1-1,0.4-1.1,0.9C33.8,26.7,34.2,27.2,34.8,27.3z"/>
<path d="M19.9,50.4c-0.2,0.5,0,1.1,0.5,1.3c0.1,0.1,0.3,0.1,0.4,0.1c0.4,0,0.7-0.2,0.9-0.6c0.8-1.6,1.1-4.1,1.2-6.4h-2
	C20.8,47,20.4,49.1,19.9,50.4z"/>
<path d="M30.6,27.7c0.5-0.2,0.8-0.7,0.7-1.2c-0.1-0.5-0.7-0.8-1.2-0.7c-4.9,1.4-8.4,5.6-9.3,10.4h2C23.6,32.2,26.5,28.9,30.6,27.7z"
	/>
<path d="M39.7,55c-0.2,0.5,0.2,1.1,0.7,1.2c0.1,0,0.2,0,0.3,0c0.4,0,0.8-0.3,1-0.7c1.1-3.8,1.5-7.6,1.5-10.7h-2
	C41.1,47.9,40.8,51.5,39.7,55z"/>
<path d="M24.9,36.2H27c0.8-2.5,3-4.4,5.7-4.8c0.3-0.1,0.7-0.1,1.1-0.1c2.8,0,5.4,1.7,6.5,4.2c0.2,0.5,0.8,0.7,1.3,0.5
	c0.5-0.2,0.7-0.8,0.5-1.3c-1.5-3.3-4.7-5.4-8.3-5.4c-0.5,0-1,0-1.4,0.1C28.6,30,25.8,32.7,24.9,36.2z"/>
<path d="M23.3,52.6c-0.3,0.5-0.1,1.1,0.4,1.4C23.9,54,24,54,24.2,54c0.4,0,0.7-0.2,0.9-0.5c1.4-2.6,1.8-6.1,1.9-8.6h-2
	C24.8,48.1,24.2,50.8,23.3,52.6z"/>
<path d="M35.3,55.5c-0.2,0.5,0.1,1.1,0.6,1.3c0.1,0,0.2,0.1,0.3,0.1c0.4,0,0.8-0.2,0.9-0.7c1.4-3.9,1.9-8,2-11.3h-2
	C37.1,48.1,36.6,51.9,35.3,55.5z"/>
<path d="M29,44.9c-0.1,3-0.6,6.5-2,9.3c-0.2,0.5,0,1.1,0.5,1.3c0.1,0.1,0.3,0.1,0.5,0.1c0.4,0,0.7-0.2,0.9-0.6
	c1.5-3.1,2.1-6.9,2.2-10.2H29z"/>
<path d="M32.9,33.4c-1.7,0.3-3,1.3-3.7,2.7h2.5c0.4-0.4,1-0.7,1.6-0.8c0.5-0.1,1,0,1.5,0.1c0.5,0.2,1.1-0.1,1.3-0.6
	c0.2-0.5-0.1-1.1-0.6-1.3C34.6,33.4,33.8,33.3,32.9,33.4z"/>
<path d="M33.9,48.2c-0.5-0.1-1,0.3-1.1,0.8c-0.3,2.3-0.9,4.4-1.7,6.2c-0.2,0.5,0,1.1,0.5,1.3c0.1,0.1,0.3,0.1,0.4,0.1
	c0.4,0,0.7-0.2,0.9-0.6c0.8-2,1.5-4.2,1.8-6.7C34.8,48.8,34.4,48.2,33.9,48.2z"/>
<path d="M33.1,45.4c0,0.6,0.4,1,1,1h0c0.5,0,1-0.4,1-1c0-0.2,0-0.4,0-0.6h-2C33.1,45.1,33.1,45.2,33.1,45.4z"/>
<rect x="18.3" y="38.2" width="31.2" height="4.7"/>
</svg>
