<?xml version="1.0" encoding="utf-8"?>
<!-- Generator: Adobe Illustrator 26.3.1, SVG Export Plug-In . SVG Version: 6.00 Build 0)  -->
<svg version="1.1" id="Capa_2_00000132794659198970592840000018053733984878259869_"
	 xmlns="http://www.w3.org/2000/svg" xmlns:xlink="http://www.w3.org/1999/xlink" x="0px" y="0px" viewBox="0 0 66 82.5"
	 style="enable-background:new 0 0 66 82.5;" xml:space="preserve">
<path d="M58.6,42.2l-9.7-3.8c-0.3-0.2-1.1-0.3-1.9,0l-9.7,3.8c-0.8,0.3-1.4,1.2-1.4,2c0,9.5,5.8,16,11.2,18.1c0.8,0.3,1.5,0.2,1.9,0
	c4.3-1.7,11.3-7.5,11.3-18.1C60.1,43.3,59.5,42.5,58.6,42.2z M47.9,58.3v-16l8,3.1C55.5,52.8,50.8,56.9,47.9,58.3z M24.9,40.8
	c5.9,0,10.8-4.8,10.8-10.8c0-5.9-4.9-10.8-10.8-10.8c-6,0-10.8,4.9-10.8,10.8C14.1,36,18.9,40.8,24.9,40.8z M33,44.2
	c0-0.2,0-0.3,0.1-0.6c-0.3,0-0.4-0.1-0.7-0.1H31c-1.9,0.9-3.9,1.4-6.1,1.4s-4.3-0.4-6.2-1.4h-1.4c-6.3,0-11.3,5.2-11.3,11.4v3.5
	c0,2.3,1.8,4.1,4.1,4.1h29.8c0.5,0,1.1-0.1,1.6-0.3C36.9,58.6,33,52.3,33,44.2z"/>
</svg>
