<?xml version="1.0" encoding="utf-8"?>
<!-- Generator: Adobe Illustrator 26.3.1, SVG Export Plug-In . SVG Version: 6.00 Build 0)  -->
<svg version="1.1" id="Capa_1" xmlns="http://www.w3.org/2000/svg" xmlns:xlink="http://www.w3.org/1999/xlink" x="0px" y="0px"
	 viewBox="0 0 100 125" style="enable-background:new 0 0 100 125;" xml:space="preserve">
<path d="M84.3,34.2H15.7c-5,0-9,4-9,9v38.5c0,5,4,9,9,9h68.6c5,0,9-4,9-9V43.2C93.3,38.3,89.3,34.2,84.3,34.2z M84.3,38.2
	c0.7,0,1.4,0.2,2,0.4L67.2,54.3c-0.9,0.7-1,2-0.3,2.8c0.4,0.5,1,0.7,1.5,0.7c0.4,0,0.9-0.1,1.3-0.5L89,41.7c0.2,0.5,0.3,1,0.3,1.6
	v38.5c0,0.5-0.1,0.9-0.2,1.4L64.6,59.3c0,0,0,0,0,0c0,0,0-0.1-0.1-0.1c-0.7-0.9-2-1-2.8-0.3L50,68.4L13.7,38.7
	c0.6-0.3,1.3-0.4,2-0.4H84.3z M10.9,83.2c-0.1-0.4-0.2-0.9-0.2-1.4V43.2c0-0.6,0.1-1.1,0.3-1.6l23.1,18.9L10.9,83.2z M15.7,86.8
	c-0.8,0-1.5-0.2-2.2-0.5l23.7-23.1l11.5,9.4c0.4,0.3,0.8,0.5,1.3,0.5s0.9-0.2,1.3-0.5l11.5-9.4l23.7,23.1c-0.7,0.3-1.4,0.5-2.2,0.5
	H15.7z"/>
</svg>
