<?xml version="1.0" encoding="utf-8"?>
<!-- Generator: Adobe Illustrator 26.3.1, SVG Export Plug-In . SVG Version: 6.00 Build 0)  -->
<svg version="1.1" id="Capa_2" xmlns="http://www.w3.org/2000/svg" xmlns:xlink="http://www.w3.org/1999/xlink" x="0px" y="0px"
	 viewBox="0 0 100 125" style="enable-background:new 0 0 100 125;" xml:space="preserve">
<path d="M39.3,47.6c2.3,0,4.5-0.9,6.2-2.7c3.1-3.4,2.9-8.7-0.5-11.8s-8.7-2.9-11.8,0.5s-2.9,8.7,0.5,11.8l0,0
	C35.2,46.8,37.2,47.6,39.3,47.6z M34.9,35.3c2.2-2.4,5.9-2.6,8.3-0.4c2.4,2.2,2.6,5.9,0.4,8.3c-2.2,2.4-5.9,2.6-8.3,0.4
	C32.9,41.4,32.7,37.6,34.9,35.3z"/>
<path d="M73.4,64.2H31.2l-1.3-11.1c0,0,0.2,0,0.3-0.1l4.7-0.7l3.2,4.8l0,0c0.2,0.4,0.7,0.7,1.1,0.7s0.9-0.3,1.1-0.7c0,0,0,0,0-0.1
	l3.2-4.7l4.7,0.7c0.1,0,0.1,0,0.2,0c0.1,0,0.1,0,0.1,0l-1.2,7.3l2.5,0.4l1.2-7.3c0.1-0.7-0.1-1.4-0.6-2s-1.2-0.9-1.9-0.9l-4.8-0.7
	c-0.9-0.1-1.8,0.3-2.2,1.1l-2.3,3.4l-2.3-3.4c-0.5-0.7-1.4-1.2-2.2-1.1l-4.8,0.7c-0.8,0-1.4,0.4-1.9,0.9s-0.7,1.3-0.6,1.9l1.4,12.2
	c0.1,0.6,0.6,1.1,1.2,1.1h43.3v-2.4H73.4z"/>
<path d="M84.4,48.1V37c0-0.3-0.1-0.6-0.4-0.9l-17.8-18c-0.2-0.2-0.6-0.4-0.9-0.4H17.9c-0.7,0-1.3,0.6-1.3,1.3v86.3
	c0,0.7,0.6,1.3,1.3,1.3h65.3c0.7,0,1.3-0.6,1.3-1.3V55.4H82v48.7H19.1V20.2h45V40c0,0.7,0.6,1.3,1.3,1.3h16.1v-2.5H66.6V22
	l15.3,15.5v10.6H84.4z"/>
<rect x="28.7" y="74.3" width="44.7" height="2.5"/>
<rect x="28.7" y="85.7" width="44.7" height="2.5"/>
</svg>
