<?xml version="1.0" encoding="utf-8"?>
<!-- Generator: Adobe Illustrator 26.3.1, SVG Export Plug-In . SVG Version: 6.00 Build 0)  -->
<svg version="1.1" id="Capa_2_00000155137472911693034870000011014952428965247413_"
	 xmlns="http://www.w3.org/2000/svg" xmlns:xlink="http://www.w3.org/1999/xlink" x="0px" y="0px" viewBox="0 0 66 82.5"
	 style="enable-background:new 0 0 66 82.5;" xml:space="preserve">
<path d="M39,26.7H27c-4.7,0-8.5,3.8-8.5,8.5v12.1c0,4.7,3.8,8.5,8.5,8.5H39c4.7,0,8.5-3.8,8.5-8.5V35.2C47.6,30.5,43.8,26.7,39,26.7
	z M45.6,47.3c0,3.6-2.9,6.5-6.5,6.5H27c-3.6,0-6.5-2.9-6.5-6.5V35.2c0-3.6,2.9-6.5,6.5-6.5H39c3.6,0,6.5,2.9,6.5,6.5V47.3z"/>
<circle cx="42" cy="32.2" r="1.5"/>
<path d="M33,33.7c-4.2,0-7.5,3.4-7.5,7.5c0,4.2,3.4,7.5,7.5,7.5s7.5-3.4,7.5-7.5C40.5,37.1,37.1,33.7,33,33.7z M33,45.8
	c-2.5,0-4.5-2-4.5-4.5c0-2.5,2-4.5,4.5-4.5c2.5,0,4.5,2,4.5,4.5C37.5,43.8,35.5,45.8,33,45.8z"/>
</svg>
