<?xml version="1.0" encoding="utf-8"?>
<!-- Generator: Adobe Illustrator 26.3.1, SVG Export Plug-In . SVG Version: 6.00 Build 0)  -->
<svg version="1.1" id="Capa_2_00000155137472911693034870000011014952428965247413_"
	 xmlns="http://www.w3.org/2000/svg" xmlns:xlink="http://www.w3.org/1999/xlink" x="0px" y="0px" viewBox="0 0 66 82.5"
	 style="enable-background:new 0 0 66 82.5;" xml:space="preserve">
<path d="M40.2,34.9c-2.4,0-3.7,0.8-4.4,2v-2h-5v14h5c0,0,0-7.3,0-7.7c0-2.3,1.6-2.6,2.1-2.6s1.8,0.5,1.8,2.6v7.7h4.9v-7.7
	C44.6,36.9,42.6,34.9,40.2,34.9z"/>
<path d="M24.1,27.6c-1.7,0-2.7,1-2.7,2.4s1,2.4,2.6,2.4c1.7,0,2.7-1,2.7-2.4S25.7,27.6,24.1,27.6z"/>
<rect x="21.5" y="34.9" width="5" height="14"/>
</svg>
