<?xml version="1.0" encoding="utf-8"?>
<!-- Generator: Adobe Illustrator 26.3.1, SVG Export Plug-In . SVG Version: 6.00 Build 0)  -->
<svg version="1.1" id="Capa_2" xmlns="http://www.w3.org/2000/svg" xmlns:xlink="http://www.w3.org/1999/xlink" x="0px" y="0px"
	 viewBox="0 0 48 60" style="enable-background:new 0 0 48 60;" xml:space="preserve">
<style type="text/css">
	.st0{fill-rule:evenodd;clip-rule:evenodd;}
</style>
<g transform="matrix(1,0,0,1,-144,-144)">
	<g>
		<path class="st0" d="M168,151c-10.5,0-19,8.5-19,19c0,5.3,2.8,10.8,6.2,15.4c4.8,6.4,10.9,11,10.9,11c1.1,0.8,2.6,0.8,3.6,0
			c0,0,6.1-4.6,10.9-11c3.5-4.6,6.2-10,6.2-15.4C187,159.5,178.5,151,168,151z M168,153c9.4,0,17,7.6,17,17c0,4.9-2.6,9.9-5.8,14.2
			c-4.7,6.2-10.6,10.6-10.6,10.6h0c-0.4,0.3-0.9,0.3-1.2,0h0c0,0-5.9-4.5-10.6-10.6c-3.2-4.2-5.8-9.2-5.8-14.2
			C151,160.6,158.6,153,168,153z"/>
		<path class="st0" d="M168,161c-5,0-9,4-9,9s4,9,9,9s9-4,9-9S173,161,168,161z M168,163c3.9,0,7,3.1,7,7s-3.1,7-7,7s-7-3.1-7-7
			S164.1,163,168,163z"/>
	</g>
</g>
</svg>
