<?xml version="1.0" encoding="utf-8"?>
<!-- Generator: Adobe Illustrator 26.3.1, SVG Export Plug-In . SVG Version: 6.00 Build 0)  -->
<svg version="1.1" id="Capa_1" xmlns="http://www.w3.org/2000/svg" xmlns:xlink="http://www.w3.org/1999/xlink" x="0px" y="0px"
	 viewBox="0 0 1000 1000" style="enable-background:new 0 0 1000 1000;" xml:space="preserve">
<style type="text/css">
	.st0{fill:#FFFFFF;}
</style>
<circle class="st0" cx="662.4" cy="428.7" r="61.1"/>
<path class="st0" d="M662.4,297.4V337c50.6,0,91.7,41.1,91.7,91.7h39.6C793.7,356.3,734.8,297.4,662.4,297.4z"/>
<path class="st0" d="M662.4,232.1v36c88.6,0,160.6,72.1,160.6,160.6h36C859,320.3,770.8,232.1,662.4,232.1z"/>
<g>
	<path class="st0" d="M227.5,354.4h-26.4v137.3H168V354.4h-26.7v-31h86.2V354.4z"/>
</g>
<g>
	<path class="st0" d="M181.4,699.8c-25.5,0-40.1-17.6-40.1-42.4v-10.2h32.8v14.6c0,3.9,3.1,7,7.2,7h6.9c3.9,0,7-3.4,7-7v-16.2
		c0-19.7-11.9-10.9-28.2-19.1c-15-7.5-25.8-22.6-25.8-49.2c0-25.3,13-44.4,40.1-44.4h4.4c23.3,0,42.3,19,42.3,42.3v9.4h-32.8v-13.7
		c0-3.6-3.1-7-7-7h-6.9c-4.1,0-7.2,3.1-7.2,7v6.4c0,4.1,0.3,10.3,1.4,15.2c1,4.4,4.5,7.7,8.9,8.3c32.4,4.9,43.6,15.9,43.6,45.6v10.3
		c0,25-9.3,43.2-34.8,43.2H181.4z"/>
</g>
<path class="st0" d="M269,493.5c-23.5,0-42.5-18.8-42.5-42.3v-87.4c0-23.2,19.1-42.3,42.5-42.3h1.9c23.5,0,42.3,19.1,42.3,42.3v87.4
	c0,23.5-18.8,42.3-42.3,42.3H269z M269,355c-3.9,0-7.2,3.1-7.2,7v91c0,4.1,3.4,7,7.2,7h4.4c3.9,0,7-2.8,7-7v-91c0-3.9-3.1-7-7-7H269
	z"/>
<path class="st0" d="M400.6,354.4h-26.4v137.3h-33.1V354.4h-26.7v-31h86.2V354.4z"/>
<path class="st0" d="M450.7,456.9h-33.4l-8.3,34.8h-33.1L417.5,324h33l39.4,167.7H459L450.7,456.9z M442.1,428.5l-8-44
	c-3.1,21.9,0,0-8.3,44H442.1z"/>
<path class="st0" d="M528.9,460.6h52.3v31h-85.2V323.3h32.8V460.6z"/>
<path class="st0" d="M275,563.2v37.4h37.6v31H275v37.8h52.3v31h-85.2V532.2h85.2v31H275z"/>
<path class="st0" d="M377.9,702.3c-23.5,0-42.5-18.8-42.5-42.3v-87.4c0-23.2,19.1-42.3,42.5-42.3h1.9c23.5,0,40.1,19.1,40.1,42.3
	v11.9h-32.8v-13.7c0-3.9-3.4-7-7.2-7h-1.9c-3.9,0-7,3.1-7,7v91c0,4.1,3.1,7,7,7h4.4c3.9,0,7.2-2.8,7.2-7v-12.1h32.8V660
	c0,23.5-19.1,42.3-42.5,42.3H377.9z"/>
<path class="st0" d="M673,700.5h-32.8V532.2H673V700.5z"/>
<path class="st0" d="M821.5,532.2l-12.6,61.2c-0.3,0-0.5,0-0.5,0c-8.4-30.4,0,0-17.6-61.2h-18.5h-11.6h-82v31h26.7v137.3h33.1V563.2
	h30.6l21.8,81.6h0v55.7h32.8v-55.7h0l32.6-112.7H821.5z"/>
<path class="st0" d="M502.3,532.2c-6.2,0-12.2,0-14.4,0v129.2c0,5.8-4.7,10.6-10.6,10.6s-10.6-4.7-10.6-10.6V532.2
	c-3.5,0-12,0-19.5,0c-5.4,0-11.8,0-11.8,0V660c0,23.5,19.1,40.1,42.5,40.1h2.2c23.2,0,39.8-16.6,39.8-40.1V532.2
	C519.9,532.2,510.9,532.2,502.3,532.2z"/>
<path class="st0" d="M615.8,647.4c-1.3-8-2-17.4-4.3-21.1c10.1-6.7,11.8-18.6,11.8-32v-19.6c0-23.5,0.3-42.5-42.5-42.5h-42v168.4
	h8.5h24.1v-69.6h7.1l13.2,69.6h8.8h13.1h10.1L615.8,647.4z M590.1,595.9c0,3.9-3.1,7-7,7h-11.6v-39.7h11.6c3.9,0,7,3.1,7,7.2V595.9z
	"/>
</svg>
