<?xml version="1.0" encoding="utf-8"?>
<!-- Generator: Adobe Illustrator 26.3.1, SVG Export Plug-In . SVG Version: 6.00 Build 0)  -->
<svg version="1.1" id="Capa_2" xmlns="http://www.w3.org/2000/svg" xmlns:xlink="http://www.w3.org/1999/xlink" x="0px" y="0px"
	 viewBox="0 0 512 640" style="enable-background:new 0 0 512 640;" xml:space="preserve">
<g>
	<path d="M211.9,62.5c3.2,5.7,11.9,0.7,8.6-5L213.9,46c-3.2-5.6-11.9-0.7-8.6,5L211.9,62.5z"/>
	<path d="M269.5,119.8c7.5-7.4,7.5-19.5,0-27c-12-12-32.7-3.5-32.7,13.5S257.5,131.9,269.5,119.8z"/>
	<path d="M260.9,49.6V36c0-6.6-10-6.6-10,0v13.6C250.9,56.2,260.9,56.2,260.9,49.6z"/>
	<path d="M299.7,62.3l6.7-11.6c3.3-5.7-5.3-10.7-8.6-5l-6.7,11.6C287.8,63,296.4,68,299.7,62.3z"/>
	<path d="M327.7,92.6l10.9-6.3c5.6-3.2,0.7-11.9-5-8.6L322.7,84C317.1,87.2,322,95.9,327.7,92.6z"/>
	<path d="M216.9,139.6c-1.3-0.9-2.6-1.7-3.8-2.7H71.4v233.3h75.7c1.8,0,3.5,0.9,4.4,2.6l7.6,13.9H353l7.5-13.6
		c0.8-1.7,2.5-2.9,4.5-2.9h75.7V136.9H298.9C274.9,155,242,156.1,216.9,139.6z"/>
	<rect x="120.2" y="458.1" width="271.5" height="22.9"/>
	<polygon points="272.4,422.3 239.6,422.3 239.6,448.1 239.6,448.1 272.4,448.1 	"/>
	<path d="M289.6,131.2c9.4-6.1,17-14.8,21.9-24.9c-16.1-33.5-58.1-45.3-89.1-24.9c-9.4,6.2-17,14.8-21.9,24.9
		C216.4,139.5,258.3,151.8,289.6,131.2z M256,77.1c25.9,0,38.9,31.5,20.6,49.8c-18.3,18.3-49.7,5.3-49.7-20.6
		C226.9,90.2,239.9,77.1,256,77.1z"/>
	<path d="M173.4,86.7l10.6,6.2c5.7,3.3,10.7-5.3,5-8.6l-10.6-6.2c-2.4-1.4-5.4-0.6-6.8,1.8C170.2,82.3,171,85.3,173.4,86.7z"/>
	<path d="M453,111.3H320.1c-2.8,5.7-6.3,10.9-10.5,15.6h135.9c2.7,0,5,2.2,5,5v243.3c0,2.7-2.2,5-5,5h-77.7l-7.6,13.9
		c-0.9,1.7-2.6,2.6-4.4,2.6H156.1c-2,0-3.7-1.2-4.5-2.9l-7.5-13.6H66.4c-2.7,0-5-2.2-5-5V131.9c0-2.7,2.2-5,5-5h135.9
		c-4.1-4.7-7.7-10-10.5-15.6H59c-7,0-12.6,5.8-12.6,12.8v275.5c0,7,5.6,12.8,12.6,12.8h394c7,0,12.6-5.8,12.6-12.8V124.1
		C465.6,117.1,460,111.3,453,111.3z"/>
</g>
</svg>
