<?xml version="1.0" encoding="utf-8"?>
<!-- Generator: Adobe Illustrator 26.3.1, SVG Export Plug-In . SVG Version: 6.00 Build 0)  -->
<svg version="1.1" id="Capa_2" xmlns="http://www.w3.org/2000/svg" xmlns:xlink="http://www.w3.org/1999/xlink" x="0px" y="0px"
	 viewBox="0 0 512 640" style="enable-background:new 0 0 512 640;" xml:space="preserve">
<g>
	<g>
		<g>
			<path d="M256,154c-8.3,0-15-6.7-15-15V67.5c0-8.3,6.7-15,15-15s15,6.7,15,15V139C271,147.3,264.3,154,256,154z"/>
		</g>
		<g>
			<path d="M159,180c-5.2,0-10.2-2.7-13-7.5l-35.8-61.9c-4.1-7.2-1.7-16.3,5.5-20.5c7.2-4.1,16.4-1.7,20.5,5.5l35.8,61.9
				c4.1,7.2,1.7,16.3-5.5,20.5C164.1,179.4,161.5,180,159,180z"/>
		</g>
		<g>
			<path d="M87.9,251c-2.5,0-5.1-0.6-7.5-2l-61.9-35.8c-7.2-4.1-9.6-13.3-5.5-20.5c4.1-7.2,13.3-9.6,20.5-5.5L95.4,223
				c7.2,4.1,9.6,13.3,5.5,20.5C98.1,248.3,93.1,251,87.9,251z"/>
		</g>
		<g>
			<path d="M353,180c-2.5,0-5.1-0.6-7.5-2c-7.2-4.1-9.6-13.3-5.5-20.5l35.8-61.9c4.1-7.2,13.3-9.6,20.5-5.5
				c7.2,4.1,9.6,13.3,5.5,20.5L366,172.5C363.3,177.3,358.2,180,353,180z"/>
		</g>
		<g>
			<path d="M424.1,251c-5.2,0-10.2-2.7-13-7.5c-4.1-7.2-1.7-16.3,5.5-20.5l61.9-35.8c7.2-4.1,16.3-1.7,20.5,5.5
				c4.1,7.2,1.7,16.3-5.5,20.5L431.6,249C429.2,250.4,426.6,251,424.1,251z"/>
		</g>
		<path d="M484.7,443.6c-0.5-43-35.6-77.9-78.7-77.9H106c-43.4,0-78.7,35.3-78.7,78.7c0,8.3,6.7,15,15,15h427.4c0,0,0,0,0,0
			c8.3,0,15-6.7,15-15C484.7,444.2,484.7,443.9,484.7,443.6z"/>
		<path d="M412.3,333.1c0-86.2-70.1-156.3-156.3-156.3S99.7,246.9,99.7,333.1v2.7h312.6L412.3,333.1L412.3,333.1z"/>
	</g>
</g>
</svg>
