<svg width="128" height="96" viewBox="0 0 128 96" fill="none" xmlns="http://www.w3.org/2000/svg">
<path d="M10.6 82.7V93.4H14.2V82.7H10.6ZM10.6 47.1V57.7H14.2V47.1H10.6ZM16 0.900024V31.1H104.4L124.4 0.900024H16ZM26.6 25.8C24.6 25.8 23 24.4 23 22.8V9.30002C23 7.60002 24.6 6.20003 26.6 6.20003V25.8ZM33.8 25.8C31.8 25.8 30.2 24.4 30.2 22.8V9.30002C30.2 7.60002 31.8 6.20003 33.8 6.20003V25.8ZM40.9 25.8C38.9 25.8 37.3 24.4 37.3 22.8V9.30002C37.3 7.60002 38.9 6.20003 40.9 6.20003V25.8ZM48 25.8C46.1 25.8 44.5 24.4 44.5 22.8V9.30002C44.5 7.60002 46.1 6.20003 48 6.20003V25.8ZM125.9 13.3H124.8C123.6 13.3 122.6 14.1 122.6 15.1V27.5C122.6 28.5 123.6 29.3 124.8 29.3H125.9C127.1 29.3 128 28.5 128 27.5V15.1C128 14.1 127 13.3 125.9 13.3ZM108.5 29.3H120.9V11.5L108.5 29.3ZM26.7 32.9V41.8H96.5L103.2 32.9H26.7Z" fill="black"/>
<path d="M64 48.9V63.2C67 63.6 69.3 66.2 69.3 69.3C69.3 72.7 66.5 75.5 63.1 75.5H8.9V95.1H0V45.3H8.9V63.1H58.7V48.9H46.2V43.5H74.6V48.9H64Z" fill="black"/>
</svg>
