<?xml version="1.0" encoding="utf-8"?>
<!-- Generator: Adobe Illustrator 26.3.1, SVG Export Plug-In . SVG Version: 6.00 Build 0)  -->
<svg version="1.1" id="Capa_1" xmlns="http://www.w3.org/2000/svg" xmlns:xlink="http://www.w3.org/1999/xlink" x="0px" y="0px"
	 viewBox="0 0 48 60" style="enable-background:new 0 0 48 60;" xml:space="preserve">
<g>
	<path d="M28,35.3V35c-1.1-0.1-2.2-0.1-3.2-0.1s-2.2,0-3.2,0.1v0.4l-2.3,2.8c-0.4,0.5,0,1.2,0.6,1.2c0,0,10,0,10,0
		c0.6,0,1-0.8,0.6-1.2C30.3,38.1,28,35.3,28,35.3z"/>
	<path d="M39.2,15.3c-0.2-0.1-0.4-0.2-0.6-0.1c-9,2.3-18.6,2.3-27.6,0C10.5,15,10,15.4,10,15.9c0,0,0,18.4,0,18.5
		c0,0.5,0.5,0.8,0.9,0.7c9-2.3,18.6-2.3,27.6,0c0.5,0.1,0.9-0.3,0.9-0.7c0,0,0-18.4,0-18.5C39.5,15.6,39.4,15.4,39.2,15.3z
		 M24.7,30.5c-0.4,0-0.8-0.3-0.8-0.8c0-0.4,0.3-0.8,0.8-0.8s0.8,0.3,0.8,0.8C25.5,30.2,25.2,30.5,24.7,30.5z M27.4,28.1
		c-0.3,0.3-0.8,0.3-1.1,0c-0.9-0.9-2.3-0.9-3.2,0c-0.3,0.3-0.8,0.3-1.1,0s-0.3-0.8,0-1.1c1.5-1.5,3.8-1.5,5.3,0
		C27.7,27.4,27.7,27.9,27.4,28.1z M29.5,26c-0.3,0.3-0.8,0.3-1.1,0c-2-2-5.4-2-7.4,0c-0.3,0.3-0.8,0.3-1.1,0s-0.3-0.8,0-1.1
		c2.6-2.6,6.9-2.6,9.5,0C29.8,25.3,29.8,25.7,29.5,26z M31.6,23.9c-0.3,0.3-0.8,0.3-1.1,0c-3.2-3.2-8.5-3.2-11.7,0
		c-0.3,0.3-0.8,0.3-1.1,0s-0.3-0.8,0-1.1c3.8-3.8,10-3.8,13.8,0C31.9,23.1,31.9,23.6,31.6,23.9z"/>
</g>
</svg>
