<?xml version="1.0" encoding="utf-8"?>
<!-- Generator: Adobe Illustrator 26.3.1, SVG Export Plug-In . SVG Version: 6.00 Build 0)  -->
<svg version="1.1" id="Capa_2" xmlns="http://www.w3.org/2000/svg" xmlns:xlink="http://www.w3.org/1999/xlink" x="0px" y="0px"
	 viewBox="0 0 800 1000" style="enable-background:new 0 0 800 1000;" xml:space="preserve">
<g>
	<path d="M393.8,696.6l-5.3,5.3c-4.9,4.9-4.9,12.8,0,17.7c2.4,2.4,5.6,3.7,8.8,3.7c3.2,0,6.4-1.2,8.8-3.7l5.3-5.3
		c4.9-4.9,4.9-12.8,0-17.7C406.6,691.7,398.7,691.7,393.8,696.6z"/>
	<path d="M577.2,594.8c-22.5-22.4-59.7-21.9-82.8,1.2l-75.1,75.1c-4.9,4.9-4.9,12.8,0,17.7c4.9,4.9,12.8,4.9,17.7,0l75.1-75.1
		c13.4-13.4,34.7-13.9,47.5-1.2l88.6,88.6c12.6,12.7,12.2,33.8-0.9,47.2c-35.5,30.3-66.4,47.4-91.9,50.8
		c-7.2,0.7-135.4,10.9-295.9-149.6C99,489,109.3,360.8,110,353.7c3.4-25.5,20.5-56.4,50.8-91.9c13.4-13.1,34.5-13.5,47.2-0.9
		l88.6,88.6c12.7,12.8,12.2,34.1-1.2,47.5l-44.6,44.7c-3.4,3.4-4.5,8.4-3,12.9c11,32.4,42.8,77.8,85,121.4c0.1,0.1,0.2,0.2,0.3,0.3
		c22.1,21.3,45.2,40.6,67,55.7c5.7,3.9,13.5,2.5,17.4-3.2c3.9-5.7,2.5-13.5-3.2-17.4c-20.6-14.3-42.7-32.6-63.7-52.9
		c-36-37.2-64.6-76.5-76.5-104.8l38.9-38.9c23.1-23.1,23.7-60.3,1.2-82.8l-88.7-88.7c-22.5-22.5-59.7-21.9-82.9,1.2
		c-0.2,0.2-0.4,0.5-0.7,0.7c-33.8,39.5-53,74.9-57,105.5c0,0.1,0,0.2,0,0.3c-0.4,4-3.7,41.1,14.5,98c10.4,32.7,26,66,46.3,98.9
		c25,40.6,57.3,80.8,96,119.5c38.7,38.7,78.9,71,119.5,96c32.9,20.2,66.1,35.8,98.9,46.3c40.2,12.8,70.6,15,86.3,15
		c6.5,0,10.5-0.4,11.7-0.5c0.1,0,0.2,0,0.3,0c30.5-4,66-23.1,105.5-57c0.2-0.2,0.5-0.4,0.7-0.7c23.1-23.2,23.6-60.3,1.2-82.9
		L577.2,594.8z"/>
	<path d="M590.3,721.2c3.2,0,6.4-1.2,8.8-3.7c4.9-4.9,4.9-12.8,0-17.7l-39.3-39.3c-4.9-4.9-12.8-4.9-17.7,0s-4.9,12.8,0,17.7
		l39.3,39.3C583.9,720,587.1,721.2,590.3,721.2z"/>
	<path d="M165,419.5c-6.5,2.2-10.1,9.3-7.9,15.8c14.7,43.8,48.5,112.4,126.4,190.3c2.4,2.4,5.6,3.7,8.8,3.7c3.2,0,6.4-1.2,8.8-3.7
		c4.9-4.9,4.9-12.8,0-17.7c-74.4-74.4-106.5-139.2-120.4-180.5C178.6,420.9,171.5,417.3,165,419.5z"/>
	<path d="M697.9,550.7c-0.2-6.9-5.9-12.4-12.8-12.2c-6.9,0.2-12.4,5.9-12.2,12.8c0.1,2.6,0.1,5.3,0.1,7.9c0,6.9,5.6,12.5,12.5,12.5
		s12.5-5.6,12.5-12.5C698,556.4,698,553.5,697.9,550.7z"/>
	<path d="M350,236.1c86.3,0,167.4,33.6,228.4,94.6c50.2,50.2,81.9,113.7,91.5,183.5c0.9,6.3,6.2,10.8,12.4,10.8c0.6,0,1.1,0,1.7-0.1
		c6.8-0.9,11.6-7.3,10.7-14.1c-10.4-75.3-44.5-143.7-98.6-197.8C530.3,247.3,442.9,211.1,350,211.1c-6.9,0-12.5,5.6-12.5,12.5
		S343.1,236.1,350,236.1z"/>
	<path d="M376.4,320.3c-6.9,0-12.5,5.6-12.5,12.5c0,6.9,5.6,12.5,12.5,12.5c2.5,0,5.1,0.1,7.7,0.2c0.2,0,0.3,0,0.5,0
		c6.7,0,12.2-5.3,12.5-12c0.3-6.9-5.1-12.7-12-13C382.1,320.4,379.2,320.3,376.4,320.3z"/>
	<path d="M425.5,326c-6.7-1.6-13.5,2.6-15,9.3c-1.6,6.7,2.6,13.5,9.3,15c84.8,20.1,144,95.1,144,182.4c0,6.9,5.6,12.5,12.5,12.5
		s12.5-5.6,12.5-12.5c0-48.1-16.5-95.2-46.5-132.7C512.7,363.2,471.3,336.9,425.5,326z"/>
</g>
</svg>
