<?xml version="1.0" encoding="utf-8"?>
<!-- Generator: Adobe Illustrator 26.3.1, SVG Export Plug-In . SVG Version: 6.00 Build 0)  -->
<svg version="1.1" id="Capa_2_00000155137472911693034870000011014952428965247413_"
	 xmlns="http://www.w3.org/2000/svg" xmlns:xlink="http://www.w3.org/1999/xlink" x="0px" y="0px" viewBox="0 0 66 82.5"
	 style="enable-background:new 0 0 66 82.5;" xml:space="preserve">
<path d="M40.1,33.3c-0.1-0.1-0.3-0.2-0.4-0.2c-0.4-0.3-0.8-0.6-1.1-0.9c-0.8-0.9-1.1-1.9-1.2-2.5h0c-0.1-0.5-0.1-0.9,0-0.9h-3.7V43
	c0,0.2,0,0.4,0,0.6c0,0,0,0,0,0.1c0,0,0,0,0,0c0,0,0,0,0,0c-0.1,1-0.7,2-1.6,2.5c-0.5,0.3-1,0.4-1.5,0.4c-1.7,0-3.1-1.4-3.1-3.1
	c0-1.7,1.4-3.1,3.1-3.1c0.3,0,0.6,0.1,1,0.2l0-3.8c-1.9-0.2-3.8,0.3-5.3,1.5c-0.6,0.6-1.2,1.2-1.6,1.9c-0.2,0.3-0.7,1.3-0.8,3.1
	c0,1,0.3,2,0.4,2.4v0c0.1,0.3,0.4,1.1,1,1.8c0.5,0.6,1,1.1,1.6,1.5v0l0,0c1.8,1.2,3.8,1.1,3.8,1.1c0.3,0,1.5,0,2.8-0.6
	c1.4-0.7,2.3-1.7,2.3-1.7c0.5-0.6,0.9-1.3,1.2-2.1c0.3-0.9,0.4-1.9,0.4-2.4v-7.6c0,0,0.6,0.4,0.6,0.4s0.9,0.6,2.2,0.9
	c1,0.3,2.3,0.3,2.3,0.3v-3.7C41.9,33.9,41,33.8,40.1,33.3z"/>
</svg>
